<?xml version="1.0" encoding="utf-8" ?>
<svg baseProfile="full" height="200mm" version="1.1" viewBox="0,0,200,200" width="200mm" xmlns="http://www.w3.org/2000/svg" xmlns:ev="http://www.w3.org/2001/xml-events" xmlns:xlink="http://www.w3.org/1999/xlink"><defs /><rect fill="#1a1a1a" height="200" width="200" x="0" y="0" /><text alignment-baseline="middle" fill="#e1ed5e" style="dominant-baseline: central; font-size:9.0px; font-family:Arial;" text-anchor="middle" x="100.0" y="100.0">2019</text><line stroke="#e1ed5e" stroke-width="0.3" x1="100.0" x2="100.0" y1="15.0" y2="10.0" /><path d="M 100.0 14.0 a86.0,86.0 0 0,1 42.46469731375804,11.215312516191453" fill="none" id="id1" stroke="none" /><text fill="#e1ed5e" style="font-size:6.75px; font-family:Arial;" text-anchor="middle"><textPath startOffset="22.20632615414155" xlink:href="#id1">January</textPath></text><path d="M 109.41281617654863 81.2277094730956 l 27.482035780661658 -54.808332625329854 a82.31244258564786,82.31244258564786 0 0,0 1.2611031020421377,0.6459859903762101 l -28.42139937029255 54.32715410964115" fill="#4ae9ff" stroke="none" /><path d="M 110.05341064243156 81.56283822128135 l 29.423128586836935 -53.959695976404284 a82.46030658647516,82.46030658647516 0 0,0 1.2403440218286717,0.6902501052556768 l -30.34759669773764 53.445230473588424" fill="#4ae7ff" stroke="none" /><line stroke="#e1ed5e" stroke-width="0.3" x1="143.23703022742887" x2="145.7803849466894" y1="26.81831364943548" y2="22.513508569990506" /><path d="M 143.74570117128098 25.957352633546492 a86.0,86.0 0 0,1 28.547481713284135,27.462654790039103" fill="none" id="id2" stroke="none" /><text fill="#e1ed5e" style="font-size:6.75px; font-family:Arial;" text-anchor="middle"><textPath startOffset="19.985693538727396" xlink:href="#id2">February</textPath></text><path d="M 113.6212207817346 84.01681056812373 l 40.007051029603396 -46.944417498492484 a82.67935202608777,82.67935202608777 0 0,0 1.075249702961514,0.9324459467217054 l -40.80919453121168 46.248806558351106" fill="#4be4ff" stroke="none" /><path d="M 114.16331599549186 84.49514656593476 l 41.17089025792844 -45.07056252944928 a82.04422832136864,82.04422832136864 0 0,0 1.0345078495063793,0.9614623013778055 l -41.94060599122967 44.355195641996836" fill="#49edff" stroke="none" /><path d="M 114.94478906791727 85.2469230424477 l 44.777725961251 -44.203316225364915 a83.92040930874894,83.92040930874894 0 0,0 1.0059888584606846,1.0367599475609026 l -45.5319790834148 43.4259920822539" fill="#4dd3ff" stroke="none" /><path d="M 115.4437574822437 85.77008943001954 l 45.24608413725995 -41.68983692312433 a82.52439054905548,82.52439054905548 0 0,0 0.9535746748102019,1.0529609728523137 l -45.95700245268618 40.90482316300247" fill="#4ae6ff" stroke="none" /><path d="M 116.15771136456269 86.58626213691792 l 48.47313409368808 -40.241213589246215 a84.0,84.0 0 0,0 0.9140060316943646,1.1204633215675965 l -49.158638617458855 39.400866098070516" fill="#4dd2ff" stroke="none" /><path d="M 116.38621287248628 86.86637796730983 l 47.91966712322568 -38.40782497007088 a82.41217726259472,82.41217726259472 0 0,0 0.8776736740069623,1.1145564368317795 l -48.573694877826604 37.57727613928606" fill="#4ae8ff" stroke="none" /><line stroke="#e1ed5e" stroke-width="0.3" x1="172.23445277983987" x2="176.4835382374775" y1="55.19839476539836" y2="52.563006222186495" /><path d="M 173.08426987136738 54.67131705675599 a86.0,86.0 0 0,1 12.851231095245387,41.99856678651699" fill="none" id="id3" stroke="none" /><text fill="#e1ed5e" style="font-size:6.75px; font-family:Arial;" text-anchor="middle"><textPath startOffset="22.20632615414155" xlink:href="#id3">March</textPath></text><line stroke="#e1ed5e" stroke-width="0.3" x1="184.98032266829074" x2="189.97916517819016" y1="98.17113171792111" y2="98.06355123074" /><path d="M 185.9800911702706 98.14961562048488 a86.0,86.0 0 0,1 -9.607161424134198,41.387399972396054" fill="none" id="id4" stroke="none" /><text fill="#e1ed5e" style="font-size:6.75px; font-family:Arial;" text-anchor="middle"><textPath startOffset="21.466115282336823" xlink:href="#id4">April</textPath></text><line stroke="#e1ed5e" stroke-width="0.3" x1="174.80103733775053" x2="179.2010983576182" y1="140.37084112569926" y2="142.7455964860345" /><path d="M 175.68104954172406 140.8457921977663 a86.0,86.0 0 0,1 -30.038265399797805,32.042727171017184" fill="none" id="id5" stroke="none" /><text fill="#e1ed5e" style="font-size:6.75px; font-family:Arial;" text-anchor="middle"><textPath startOffset="22.206326154141568" xlink:href="#id5">May</textPath></text><line stroke="#e1ed5e" stroke-width="0.3" x1="143.8653032363475" x2="146.44561519142675" y1="172.8068346515853" y2="177.08958963109032" /><path d="M 144.38136562736335 173.6633856474863 a86.0,86.0 0 0,1 -40.68145358897372,12.25698825130547" fill="none" id="id6" stroke="none" /><text fill="#e1ed5e" style="font-size:6.75px; font-family:Arial;" text-anchor="middle"><textPath startOffset="21.466115282336833" xlink:href="#id6">June</textPath></text><line stroke="#e1ed5e" stroke-width="0.3" x1="102.19456741930631" x2="102.32365962044197" y1="184.97166512339345" y2="189.96999836594603" /><path d="M 102.22038585953345 185.97133177190398 a86.0,86.0 0 0,1 -42.740103519485714,-10.115201625700543" fill="none" id="id7" stroke="none" /><text fill="#e1ed5e" style="font-size:6.75px; font-family:Arial;" text-anchor="middle"><textPath startOffset="22.20632615414155" xlink:href="#id7">July</textPath></text><path d="M 94.11515582081647 120.15858648285463 l -11.628162727681609 39.83237564927305 a62.49496738504857,62.49496738504857 0 0,0 -1.0300510563574257,-0.31034593364283375 l 12.31208875847928 -39.62631434652449" fill="#80ff26" stroke="none" /><path d="M 90.42595943632237 118.69057910512821 l -19.00163643838478 37.09526679110859 a62.67878363916198,62.67878363916198 0 0,0 -0.9560278389617631,-0.5001485806787025 l 19.637355179873037 -36.762688791485175" fill="#7dff26" stroke="none" /><path d="M 90.10565033884886 118.52300852407294 l -19.387026854701805 36.294054281915585 a62.147480925125464,62.147480925125464 0 0,0 -0.9392472735935056,-0.5121525020797427 l 20.00889694016395 -35.95496112807607" fill="#85ff25" stroke="none" /><line stroke="#e1ed5e" stroke-width="0.3" x1="58.666819895761336" x2="56.23545636021788" y1="174.27360380694188" y2="178.64263932499728" /><path d="M 58.180547188652646 175.14741091055294 a86.0,86.0 0 0,1 -31.652253787137756,-30.449443065178592" fill="none" id="id8" stroke="none" /><text fill="#e1ed5e" style="font-size:6.75px; font-family:Arial;" text-anchor="middle"><textPath startOffset="22.20632615414155" xlink:href="#id8">August</textPath></text><path d="M 89.4739219176387 118.17145234162733 l -20.641971359505185 35.63479159679013 a62.181662833757656,62.181662833757656 0 0,0 -0.9215681574640819,-0.5444787113819072 l 21.252307387997647 -35.27419431311447" fill="#85ff25" stroke="none" /><path d="M 89.1626897886671 117.98757091392108 l -21.28331455754045 35.3256594506915 a62.24174698265633,62.24174698265633 0 0,0 -0.9129406049146959,-0.5608026844699321 l 21.888234362387454 -34.954068299393185" fill="#84ff25" stroke="none" /><path d="M 88.54995079064634 117.60387380957326 l -22.57012188859233 34.70042532820647 a62.394805471512335,62.394805471512335 0 0,0 -0.8952920740840445,-0.5933507679182498 l 23.164088661416333 -34.3067765391969" fill="#81ff25" stroke="none" /><path d="M 88.24862548938628 117.40417183066458 l -23.12360801781103 34.24682337571919 a62.32246554949354,62.32246554949354 0 0,0 -0.8839198712973215,-0.6079681474899965 l 23.70968477373124 -33.84371443886409" fill="#82ff25" stroke="none" /><path d="M 87.95078237400918 117.19931262002967 l -23.673654704790483 33.79228434284718 a62.25967048086404,62.25967048086404 0 0,0 -0.8724437904596017,-0.6224654796735943 l 24.251825823098972 -33.37977460132937" fill="#83ff25" stroke="none" /><path d="M 87.36589467227662 116.77436683061367 l -24.419611973469262 32.42204481273168 a61.58948680106198,61.58948680106198 0 0,0 -0.8413454471454412,-0.6451078120607762 l 24.974086149108192 -31.996897658843537" fill="#8eff24" stroke="none" /><path d="M 87.07902340077011 116.55440617244103 l -25.371560248591774 32.50614304252983 a62.23548720397678,62.23548720397678 0 0,0 -0.8388232542938269,-0.6664119246448588 l 25.927340995602957 -32.06459720387984" fill="#84ff25" stroke="none" /><path d="M 86.79598089348748 116.32954008644616 l -25.831864203503834 31.94652011755247 a62.083638541996834,62.083638541996834 0 0,0 -0.8252094307478848,-0.6790911815334827 l 26.37794376279641 -31.497133817161806" fill="#86ff25" stroke="none" /><path d="M 86.24171649860922 115.8653595955263 l -16.07112069943969 18.5324069658793 a45.53020645010821,45.53020645010821 0 0,0 -0.5876814586687445,-0.5185605587236167 l 16.387744511015022 -18.253023265383394" fill="#ff4906" stroke="none" /><path d="M 85.97065885151581 115.62618273729859 l -14.067590655821297 15.668785863485006 a42.057254267722044,42.057254267722044 0 0,0 -0.5345285767734317,-0.48827918133229675 l 14.335218782061583 -15.424313915566135" fill="#ff0000" stroke="none" /><path d="M 85.70375840098266 115.38237550388516 l -27.944114192804765 30.067123212769115 a62.04759939767918,62.04759939767918 0 0,0 -0.7760800439925833,-0.7338321220689312 l 28.457530071188163 -29.581656453954253" fill="#87ff25" stroke="none" /><path d="M 85.18274418774928 114.88116024355367 l -14.962405284746051 15.02693572228194 a42.20571548207204,42.20571548207204 0 0,0 -0.5104065296624294,-0.5170391198147841 l 15.218852439464014 -14.76715610848649" fill="#ff0300" stroke="none" /><path d="M 84.67929136418377 114.36230785411682 l -15.524453318925548 14.553307104348278 a42.27927156941639,42.27927156941639 0 0,0 -0.49316473515488557,-0.5352329187925025 l 15.772664462076163 -14.283922930754432" fill="#ff0500" stroke="none" /><line stroke="#e1ed5e" stroke-width="0.3" x1="26.63291911575756" x2="22.317208475507996" y1="142.92168965132927" y2="145.44649492493687" /><path d="M 25.769776987707644 143.4266507060508 a86.0,86.0 0 0,1 -11.730757126820373,-40.83630448921669" fill="none" id="id9" stroke="none" /><text fill="#e1ed5e" style="font-size:6.75px; font-family:Arial;" text-anchor="middle"><textPath startOffset="21.46611528233685" xlink:href="#id9">September</textPath></text><line stroke="#e1ed5e" stroke-width="0.3" x1="15.007084014347285" x2="10.007500721073583" y1="101.09737516637583" y2="101.16192664675087" /><path d="M 14.007167355692545 101.11028546245083 a86.0,86.0 0 0,1 10.666146001902534,-42.60595125391555" fill="none" id="id10" stroke="none" /><text fill="#e1ed5e" style="font-size:6.75px; font-family:Arial;" text-anchor="middle"><textPath startOffset="22.20632615414155" xlink:href="#id10">October</textPath></text><line stroke="#e1ed5e" stroke-width="0.3" x1="26.266209847984243" x2="21.928928074336255" y1="57.711370442889674" y2="55.22380399835377" /><path d="M 25.398753493254645 57.213857153982495 a86.0,86.0 0 0,1 29.58750427330803,-30.492523968695096" fill="none" id="id11" stroke="none" /><text fill="#e1ed5e" style="font-size:6.75px; font-family:Arial;" text-anchor="middle"><textPath startOffset="21.46611528233685" xlink:href="#id11">November</textPath></text><line stroke="#e1ed5e" stroke-width="0.3" x1="56.762969772571076" x2="54.21961505331055" y1="26.818313649435495" y2="22.513508569990535" /><path d="M 56.25429882871897 25.957352633546506 a86.0,86.0 0 0,1 42.265352541879196,-11.944610805530505" fill="none" id="id12" stroke="none" /><text fill="#e1ed5e" style="font-size:6.75px; font-family:Arial;" text-anchor="middle"><textPath startOffset="22.20632615414155" xlink:href="#id12">December</textPath></text></svg>